<?xml version="1.0" encoding="utf-8"?>
<svg version="1.1" xmlns:xlink="http://www.w3.org/1999/xlink" width="12px" height="12px" viewBox="303 248  12 12" xmlns="http://www.w3.org/2000/svg">
  <path d="M 309 248  C 312.36 248  315 250.64  315 254  C 315 257.36  312.36 260  309 260  C 305.64 260  303 257.36  303 254  C 303 250.64  305.64 248  309 248  Z " fill-rule="nonzero" fill="#f0f0f0" stroke="none" />
  <path d="M 309 248.5  C 312.08 248.5  314.5 250.92  314.5 254  C 314.5 257.08  312.08 259.5  309 259.5  C 305.92 259.5  303.5 257.08  303.5 254  C 303.5 250.92  305.92 248.5  309 248.5  Z " stroke-width="1" stroke="#797979" fill="none" />
  <path d="M 309 257  C 307.32 257  306 255.68  306 254  C 306 252.32  307.32 251  309 251  C 310.68 251  312 252.32  312 254  C 312 255.68  310.68 257  309 257  " fill-rule="nonzero" fill="#797979" stroke="none" />
</svg>