<?xml version="1.0" encoding="utf-8"?>
<svg version="1.1" xmlns:xlink="http://www.w3.org/1999/xlink" width="12px" height="12px" viewBox="303 190  12 12" xmlns="http://www.w3.org/2000/svg">
  <path d="M 309 190  C 312.36 190  315 192.64  315 196  C 315 199.36  312.36 202  309 202  C 305.64 202  303 199.36  303 196  C 303 192.64  305.64 190  309 190  Z " fill-rule="nonzero" fill="#f0f0f0" stroke="none" />
  <path d="M 309 190.5  C 312.08 190.5  314.5 192.92  314.5 196  C 314.5 199.08  312.08 201.5  309 201.5  C 305.92 201.5  303.5 199.08  303.5 196  C 303.5 192.92  305.92 190.5  309 190.5  Z " stroke-width="1" stroke="#797979" fill="none" />
  <path d="M 309 199  C 307.32 199  306 197.68  306 196  C 306 194.32  307.32 193  309 193  C 310.68 193  312 194.32  312 196  C 312 197.68  310.68 199  309 199  " fill-rule="nonzero" fill="#797979" stroke="none" />
</svg>