<?xml version="1.0" encoding="utf-8"?>
<svg version="1.1" xmlns:xlink="http://www.w3.org/1999/xlink" width="12px" height="12px" viewBox="303 302  12 12" xmlns="http://www.w3.org/2000/svg">
  <path d="M 309 302  C 312.36 302  315 304.64  315 308  C 315 311.36  312.36 314  309 314  C 305.64 314  303 311.36  303 308  C 303 304.64  305.64 302  309 302  Z " fill-rule="nonzero" fill="#ffffff" stroke="none" />
  <path d="M 309 302.5  C 312.08 302.5  314.5 304.92  314.5 308  C 314.5 311.08  312.08 313.5  309 313.5  C 305.92 313.5  303.5 311.08  303.5 308  C 303.5 304.92  305.92 302.5  309 302.5  Z " stroke-width="1" stroke="#797979" fill="none" />
  <path d="M 309 311  C 307.32 311  306 309.68  306 308  C 306 306.32  307.32 305  309 305  C 310.68 305  312 306.32  312 308  C 312 309.68  310.68 311  309 311  " fill-rule="nonzero" fill="#797979" stroke="none" />
</svg>