<?xml version="1.0" encoding="utf-8"?>
<svg version="1.1" xmlns:xlink="http://www.w3.org/1999/xlink" width="18px" height="25px" xmlns="http://www.w3.org/2000/svg">
  <g transform="matrix(1 0 0 1 -189 -159 )">
    <path d="M 13.546875 0.948660714285715  L 17.203125 5.30133928571428  C 17.421875 5.56175595238095  17.609375 5.91517857142857  17.765625 6.36160714285714  C 17.921875 6.80803571428572  18 7.2172619047619  18 7.58928571428572  L 18 23.6607142857143  C 18 24.0327380952381  17.890625 24.3489583333333  17.671875 24.609375  C 17.453125 24.8697916666667  17.1875 25  16.875 25  L 1.125 25  C 0.8125 25  0.546875 24.8697916666667  0.328125 24.609375  C 0.109375 24.3489583333333  0 24.0327380952381  0 23.6607142857143  L 0 1.33928571428572  C 0 0.967261904761904  0.109375 0.651041666666666  0.328125 0.390625  C 0.546875 0.130208333333334  0.8125 0  1.125 0  L 11.625 0  C 11.9375 0  12.28125 0.0930059523809534  12.65625 0.279017857142858  C 13.03125 0.465029761904762  13.328125 0.688244047619047  13.546875 0.948660714285715  Z M 12.48046875 2.20424107142857  C 12.38671875 2.09263392857143  12.2265625 1.99032738095238  12 1.89732142857143  L 12 7.14285714285714  L 16.40625 7.14285714285714  C 16.328125 6.87313988095238  16.2421875 6.68247767857143  16.1484375 6.57087053571428  L 12.48046875 2.20424107142857  Z M 1.5 23  L 16.5 23  L 16.5 8.92857142857143  L 11.625 8.92857142857143  C 11.3125 8.92857142857143  11.046875 8.79836309523809  10.828125 8.53794642857143  C 10.609375 8.27752976190476  10.5 7.96130952380952  10.5 7.58928571428572  L 10.5 1.78571428571428  L 1.5 1.78571428571428  L 1.5 23  Z M 4.5 12.0535714285714  L 4.5 11.1607142857143  C 4.5 11.030505952381  4.53515625 10.9235491071429  4.60546875 10.83984375  C 4.67578125 10.7561383928571  4.765625 10.7142857142857  4.875 10.7142857142857  L 13.125 10.7142857142857  C 13.234375 10.7142857142857  13.32421875 10.7561383928571  13.39453125 10.83984375  C 13.46484375 10.9235491071429  13.5 11.030505952381  13.5 11.1607142857143  L 13.5 12.0535714285714  C 13.5 12.1837797619048  13.46484375 12.2907366071429  13.39453125 12.3744419642857  C 13.32421875 12.4581473214286  13.234375 12.5  13.125 12.5  L 4.875 12.5  C 4.765625 12.5  4.67578125 12.4581473214286  4.60546875 12.3744419642857  C 4.53515625 12.2907366071429  4.5 12.1837797619048  4.5 12.0535714285714  Z M 4.875 14.2857142857143  L 13.125 14.2857142857143  C 13.234375 14.2857142857143  13.32421875 14.3275669642857  13.39453125 14.4112723214286  C 13.46484375 14.4949776785714  13.5 14.6019345238095  13.5 14.7321428571429  L 13.5 15.625  C 13.5 15.7552083333333  13.46484375 15.8621651785714  13.39453125 15.9458705357143  C 13.32421875 16.0295758928571  13.234375 16.0714285714286  13.125 16.0714285714286  L 4.875 16.0714285714286  C 4.765625 16.0714285714286  4.67578125 16.0295758928571  4.60546875 15.9458705357143  C 4.53515625 15.8621651785714  4.5 15.7552083333333  4.5 15.625  L 4.5 14.7321428571429  C 4.5 14.6019345238095  4.53515625 14.4949776785714  4.60546875 14.4112723214286  C 4.67578125 14.3275669642857  4.765625 14.2857142857143  4.875 14.2857142857143  Z M 4.875 17.8571428571429  L 13.125 17.8571428571429  C 13.234375 17.8571428571429  13.32421875 17.8989955357143  13.39453125 17.9827008928571  C 13.46484375 18.06640625  13.5 18.1733630952381  13.5 18.3035714285714  L 13.5 19.1964285714286  C 13.5 19.3266369047619  13.46484375 19.43359375  13.39453125 19.5172991071429  C 13.32421875 19.6010044642857  13.234375 19.6428571428571  13.125 19.6428571428571  L 4.875 19.6428571428571  C 4.765625 19.6428571428571  4.67578125 19.6010044642857  4.60546875 19.5172991071429  C 4.53515625 19.43359375  4.5 19.3266369047619  4.5 19.1964285714286  L 4.5 18.3035714285714  C 4.5 18.1733630952381  4.53515625 18.06640625  4.60546875 17.9827008928571  C 4.67578125 17.8989955357143  4.765625 17.8571428571429  4.875 17.8571428571429  Z " fill-rule="nonzero" fill="#585a5c" stroke="none" transform="matrix(1 0 0 1 189 159 )" />
  </g>
</svg>