<?xml version="1.0" encoding="utf-8"?>
<svg version="1.1" xmlns:xlink="http://www.w3.org/1999/xlink" width="300px" height="30px" viewBox="430 183  300 30" xmlns="http://www.w3.org/2000/svg">
  <path d="M 431 185  A 1 1 0 0 1 432 184 L 728 184  A 1 1 0 0 1 729 185 L 729 211  A 1 1 0 0 1 728 212 L 432 212  A 1 1 0 0 1 431 211 L 431 185  Z " fill-rule="nonzero" fill="#f0f0f0" stroke="none" />
  <path d="M 430.5 185  A 1.5 1.5 0 0 1 432 183.5 L 728 183.5  A 1.5 1.5 0 0 1 729.5 185 L 729.5 211  A 1.5 1.5 0 0 1 728 212.5 L 432 212.5  A 1.5 1.5 0 0 1 430.5 211 L 430.5 185  Z " stroke-width="1" stroke="#8c8c8c" fill="none" stroke-opacity="0.298039215686275" />
</svg>