<?xml version="1.0" encoding="utf-8"?>
<svg version="1.1" xmlns:xlink="http://www.w3.org/1999/xlink" width="20px" height="17px" xmlns="http://www.w3.org/2000/svg">
  <g transform="matrix(1 0 0 1 -811 -95 )">
    <path d="M 14.140625 10.625  C 14.140625 10.7209201388889  14.1034226190476 10.8057725694444  14.0290178571429 10.8795572916667  L 12.3995535714286 12.4954427083333  C 12.3251488095238 12.5692274305556  12.2395833333333 12.6061197916667  12.1428571428571 12.6061197916667  C 12.046130952381 12.6061197916667  11.9605654761905 12.5692274305556  11.8861607142857 12.4954427083333  L 10 10.625  L 8.11383928571429 12.4954427083333  C 8.03943452380952 12.5692274305556  7.95386904761905 12.6061197916667  7.85714285714286 12.6061197916667  C 7.76041666666667 12.6061197916667  7.67485119047619 12.5692274305556  7.60044642857143 12.4954427083333  L 5.97098214285714 10.8795572916667  C 5.89657738095238 10.8057725694444  5.859375 10.7209201388889  5.859375 10.625  C 5.859375 10.5290798611111  5.89657738095238 10.4442274305556  5.97098214285714 10.3704427083333  L 7.85714285714286 8.5  L 5.97098214285714 6.62955729166667  C 5.89657738095238 6.55577256944444  5.859375 6.47092013888889  5.859375 6.375  C 5.859375 6.27907986111111  5.89657738095238 6.19422743055556  5.97098214285714 6.12044270833333  L 7.60044642857143 4.50455729166667  C 7.67485119047619 4.43077256944444  7.76041666666667 4.39388020833333  7.85714285714286 4.39388020833333  C 7.95386904761905 4.39388020833333  8.03943452380952 4.43077256944444  8.11383928571429 4.50455729166667  L 10 6.375  L 11.8861607142857 4.50455729166667  C 11.9605654761905 4.43077256944444  12.046130952381 4.39388020833333  12.1428571428571 4.39388020833333  C 12.2395833333333 4.39388020833333  12.3251488095238 4.43077256944444  12.3995535714286 4.50455729166667  L 14.0290178571429 6.12044270833333  C 14.1034226190476 6.19422743055556  14.140625 6.27907986111111  14.140625 6.375  C 14.140625 6.47092013888889  14.1034226190476 6.55577256944444  14.0290178571429 6.62955729166667  L 12.1428571428571 8.5  L 14.0290178571429 10.3704427083333  C 14.1034226190476 10.4442274305556  14.140625 10.5290798611111  14.140625 10.625  Z M 3 3  L 3 14  L 17 14  L 17 3  L 3 3  Z M 19.4754464285714 0.520182291666667  C 19.8251488095238 0.86697048611111  20 1.28385416666667  20 1.77083333333333  L 20 15.2291666666667  C 20 15.7161458333333  19.8251488095238 16.1330295138889  19.4754464285714 16.4798177083333  C 19.1257440476191 16.8266059027778  18.7053571428571 17  18.2142857142857 17  L 1.78571428571429 17  C 1.29464285714286 17  0.874255952380952 16.8266059027778  0.524553571428571 16.4798177083333  C 0.17485119047619 16.1330295138889  0 15.7161458333333  0 15.2291666666667  L 0 1.77083333333333  C 0 1.28385416666667  0.17485119047619 0.86697048611111  0.524553571428571 0.520182291666667  C 0.874255952380952 0.173394097222221  1.29464285714286 0  1.78571428571429 0  L 18.2142857142857 0  C 18.7053571428571 0  19.1257440476191 0.173394097222221  19.4754464285714 0.520182291666667  Z " fill-rule="nonzero" fill="#585a5c" stroke="none" transform="matrix(1 0 0 1 811 95 )" />
  </g>
</svg>