<?xml version="1.0" encoding="utf-8"?>
<svg version="1.1" xmlns:xlink="http://www.w3.org/1999/xlink" width="356px" height="32px" viewBox="186 68  356 32" xmlns="http://www.w3.org/2000/svg">
  <path d="M 187 70  A 1 1 0 0 1 188 69 L 540 69  A 1 1 0 0 1 541 70 L 541 98  A 1 1 0 0 1 540 99 L 188 99  A 1 1 0 0 1 187 98 L 187 70  Z " fill-rule="nonzero" fill="#ffffff" stroke="none" />
  <path d="M 186.5 70  A 1.5 1.5 0 0 1 188 68.5 L 540 68.5  A 1.5 1.5 0 0 1 541.5 70 L 541.5 98  A 1.5 1.5 0 0 1 540 99.5 L 188 99.5  A 1.5 1.5 0 0 1 186.5 98 L 186.5 70  Z " stroke-width="1" stroke="#8c8c8c" fill="none" stroke-opacity="0.298039215686275" />
</svg>