<?xml version="1.0" encoding="utf-8"?>
<svg version="1.1" xmlns:xlink="http://www.w3.org/1999/xlink" width="12px" height="12px" viewBox="788 164  12 12" xmlns="http://www.w3.org/2000/svg">
  <path d="M 794 164  C 797.36 164  800 166.64  800 170  C 800 173.36  797.36 176  794 176  C 790.64 176  788 173.36  788 170  C 788 166.64  790.64 164  794 164  Z " fill-rule="nonzero" fill="#ffffff" stroke="none" />
  <path d="M 794 164.5  C 797.08 164.5  799.5 166.92  799.5 170  C 799.5 173.08  797.08 175.5  794 175.5  C 790.92 175.5  788.5 173.08  788.5 170  C 788.5 166.92  790.92 164.5  794 164.5  Z " stroke-width="1" stroke="#797979" fill="none" />
  <path d="M 794 173  C 792.32 173  791 171.68  791 170  C 791 168.32  792.32 167  794 167  C 795.68 167  797 168.32  797 170  C 797 171.68  795.68 173  794 173  " fill-rule="nonzero" fill="#797979" stroke="none" />
</svg>