<?xml version="1.0" encoding="utf-8"?>
<svg version="1.1" xmlns:xlink="http://www.w3.org/1999/xlink" width="12px" height="12px" viewBox="788 207  12 12" xmlns="http://www.w3.org/2000/svg">
  <path d="M 794 207  C 797.36 207  800 209.64  800 213  C 800 216.36  797.36 219  794 219  C 790.64 219  788 216.36  788 213  C 788 209.64  790.64 207  794 207  Z " fill-rule="nonzero" fill="#ffffff" stroke="none" />
  <path d="M 794 207.5  C 797.08 207.5  799.5 209.92  799.5 213  C 799.5 216.08  797.08 218.5  794 218.5  C 790.92 218.5  788.5 216.08  788.5 213  C 788.5 209.92  790.92 207.5  794 207.5  Z " stroke-width="1" stroke="#797979" fill="none" />
  <path d="M 794 216  C 792.32 216  791 214.68  791 213  C 791 211.32  792.32 210  794 210  C 795.68 210  797 211.32  797 213  C 797 214.68  795.68 216  794 216  " fill-rule="nonzero" fill="#797979" stroke="none" />
</svg>