<?xml version="1.0" encoding="utf-8"?>
<svg version="1.1" xmlns:xlink="http://www.w3.org/1999/xlink" width="12px" height="12px" viewBox="788 289  12 12" xmlns="http://www.w3.org/2000/svg">
  <path d="M 794 289  C 797.36 289  800 291.64  800 295  C 800 298.36  797.36 301  794 301  C 790.64 301  788 298.36  788 295  C 788 291.64  790.64 289  794 289  Z " fill-rule="nonzero" fill="#ffffff" stroke="none" />
  <path d="M 794 289.5  C 797.08 289.5  799.5 291.92  799.5 295  C 799.5 298.08  797.08 300.5  794 300.5  C 790.92 300.5  788.5 298.08  788.5 295  C 788.5 291.92  790.92 289.5  794 289.5  Z " stroke-width="1" stroke="#797979" fill="none" />
  <path d="M 794 298  C 792.32 298  791 296.68  791 295  C 791 293.32  792.32 292  794 292  C 795.68 292  797 293.32  797 295  C 797 296.68  795.68 298  794 298  " fill-rule="nonzero" fill="#797979" stroke="none" />
</svg>