<?xml version="1.0" encoding="utf-8"?>
<svg version="1.1" xmlns:xlink="http://www.w3.org/1999/xlink" width="12px" height="12px" viewBox="788 249  12 12" xmlns="http://www.w3.org/2000/svg">
  <path d="M 794 249  C 797.36 249  800 251.64  800 255  C 800 258.36  797.36 261  794 261  C 790.64 261  788 258.36  788 255  C 788 251.64  790.64 249  794 249  Z " fill-rule="nonzero" fill="#ffffff" stroke="none" />
  <path d="M 794 249.5  C 797.08 249.5  799.5 251.92  799.5 255  C 799.5 258.08  797.08 260.5  794 260.5  C 790.92 260.5  788.5 258.08  788.5 255  C 788.5 251.92  790.92 249.5  794 249.5  Z " stroke-width="1" stroke="#797979" fill="none" />
  <path d="M 794 258  C 792.32 258  791 256.68  791 255  C 791 253.32  792.32 252  794 252  C 795.68 252  797 253.32  797 255  C 797 256.68  795.68 258  794 258  " fill-rule="nonzero" fill="#797979" stroke="none" />
</svg>