<?xml version="1.0" encoding="utf-8"?>
<svg version="1.1" xmlns:xlink="http://www.w3.org/1999/xlink" width="389px" height="32px" viewBox="185 114  389 32" xmlns="http://www.w3.org/2000/svg">
  <path d="M 186 116  A 1 1 0 0 1 187 115 L 572 115  A 1 1 0 0 1 573 116 L 573 144  A 1 1 0 0 1 572 145 L 187 145  A 1 1 0 0 1 186 144 L 186 116  Z " fill-rule="nonzero" fill="#f0f0f0" stroke="none" />
  <path d="M 185.5 116  A 1.5 1.5 0 0 1 187 114.5 L 572 114.5  A 1.5 1.5 0 0 1 573.5 116 L 573.5 144  A 1.5 1.5 0 0 1 572 145.5 L 187 145.5  A 1.5 1.5 0 0 1 185.5 144 L 185.5 116  Z " stroke-width="1" stroke="#8c8c8c" fill="none" stroke-opacity="0.298039215686275" />
</svg>