<?xml version="1.0" encoding="utf-8"?>
<svg version="1.1" xmlns:xlink="http://www.w3.org/1999/xlink" width="295px" height="31px" viewBox="426 179  295 31" xmlns="http://www.w3.org/2000/svg">
  <path d="M 427 181  A 1 1 0 0 1 428 180 L 719 180  A 1 1 0 0 1 720 181 L 720 208  A 1 1 0 0 1 719 209 L 428 209  A 1 1 0 0 1 427 208 L 427 181  Z " fill-rule="nonzero" fill="#ffffff" stroke="none" />
  <path d="M 426.5 181  A 1.5 1.5 0 0 1 428 179.5 L 719 179.5  A 1.5 1.5 0 0 1 720.5 181 L 720.5 208  A 1.5 1.5 0 0 1 719 209.5 L 428 209.5  A 1.5 1.5 0 0 1 426.5 208 L 426.5 181  Z " stroke-width="1" stroke="#8c8c8c" fill="none" stroke-opacity="0.298039215686275" />
</svg>