<?xml version="1.0" encoding="utf-8"?>
<svg version="1.1" xmlns:xlink="http://www.w3.org/1999/xlink" width="351px" height="32px" viewBox="374 89  351 32" xmlns="http://www.w3.org/2000/svg">
  <path d="M 375 91  A 1 1 0 0 1 376 90 L 723 90  A 1 1 0 0 1 724 91 L 724 119  A 1 1 0 0 1 723 120 L 376 120  A 1 1 0 0 1 375 119 L 375 91  Z " fill-rule="nonzero" fill="#ffffff" stroke="none" />
  <path d="M 374.5 91  A 1.5 1.5 0 0 1 376 89.5 L 723 89.5  A 1.5 1.5 0 0 1 724.5 91 L 724.5 119  A 1.5 1.5 0 0 1 723 120.5 L 376 120.5  A 1.5 1.5 0 0 1 374.5 119 L 374.5 91  Z " stroke-width="1" stroke="#8c8c8c" fill="none" stroke-opacity="0.298039215686275" />
</svg>