<?xml version="1.0" encoding="utf-8"?>
<svg version="1.1" xmlns:xlink="http://www.w3.org/1999/xlink" width="378px" height="32px" viewBox="13 48  378 32" xmlns="http://www.w3.org/2000/svg">
  <path d="M 14 50  A 1 1 0 0 1 15 49 L 389 49  A 1 1 0 0 1 390 50 L 390 78  A 1 1 0 0 1 389 79 L 15 79  A 1 1 0 0 1 14 78 L 14 50  Z " fill-rule="nonzero" fill="#ffffff" stroke="none" />
  <path d="M 13.5 50  A 1.5 1.5 0 0 1 15 48.5 L 389 48.5  A 1.5 1.5 0 0 1 390.5 50 L 390.5 78  A 1.5 1.5 0 0 1 389 79.5 L 15 79.5  A 1.5 1.5 0 0 1 13.5 78 L 13.5 50  Z " stroke-width="1" stroke="#8c8c8c" fill="none" stroke-opacity="0.298039215686275" />
</svg>