<?xml version="1.0" encoding="utf-8"?>
<svg version="1.1" xmlns:xlink="http://www.w3.org/1999/xlink" width="550px" height="32px" viewBox="322 125  550 32" xmlns="http://www.w3.org/2000/svg">
  <path d="M 323 127  A 1 1 0 0 1 324 126 L 870 126  A 1 1 0 0 1 871 127 L 871 155  A 1 1 0 0 1 870 156 L 324 156  A 1 1 0 0 1 323 155 L 323 127  Z " fill-rule="nonzero" fill="#ffffff" stroke="none" />
  <path d="M 322.5 127  A 1.5 1.5 0 0 1 324 125.5 L 870 125.5  A 1.5 1.5 0 0 1 871.5 127 L 871.5 155  A 1.5 1.5 0 0 1 870 156.5 L 324 156.5  A 1.5 1.5 0 0 1 322.5 155 L 322.5 127  Z " stroke-width="1" stroke="#8c8c8c" fill="none" stroke-opacity="0.298039215686275" />
</svg>