<?xml version="1.0" encoding="utf-8"?>
<svg version="1.1" xmlns:xlink="http://www.w3.org/1999/xlink" width="128px" height="30px" viewBox="32 10  128 30" xmlns="http://www.w3.org/2000/svg">
  <path d="M 33 12  A 1 1 0 0 1 34 11 L 158 11  A 1 1 0 0 1 159 12 L 159 38  A 1 1 0 0 1 158 39 L 34 39  A 1 1 0 0 1 33 38 L 33 12  Z " fill-rule="nonzero" fill="#ffffff" stroke="none" />
  <path d="M 32.5 12  A 1.5 1.5 0 0 1 34 10.5 L 158 10.5  A 1.5 1.5 0 0 1 159.5 12 L 159.5 38  A 1.5 1.5 0 0 1 158 39.5 L 34 39.5  A 1.5 1.5 0 0 1 32.5 38 L 32.5 12  Z " stroke-width="1" stroke="#8c8c8c" fill="none" stroke-opacity="0.298039215686275" />
</svg>