<?xml version="1.0" encoding="utf-8"?>
<svg version="1.1" xmlns:xlink="http://www.w3.org/1999/xlink" width="289px" height="30px" viewBox="32 84  289 30" xmlns="http://www.w3.org/2000/svg">
  <path d="M 33 86  A 1 1 0 0 1 34 85 L 319 85  A 1 1 0 0 1 320 86 L 320 112  A 1 1 0 0 1 319 113 L 34 113  A 1 1 0 0 1 33 112 L 33 86  Z " fill-rule="nonzero" fill="#f0f0f0" stroke="none" />
  <path d="M 32.5 86  A 1.5 1.5 0 0 1 34 84.5 L 319 84.5  A 1.5 1.5 0 0 1 320.5 86 L 320.5 112  A 1.5 1.5 0 0 1 319 113.5 L 34 113.5  A 1.5 1.5 0 0 1 32.5 112 L 32.5 86  Z " stroke-width="1" stroke="#8c8c8c" fill="none" stroke-opacity="0.298039215686275" />
</svg>