<?xml version="1.0" encoding="utf-8"?>
<svg version="1.1" xmlns:xlink="http://www.w3.org/1999/xlink" width="139px" height="30px" viewBox="182 10  139 30" xmlns="http://www.w3.org/2000/svg">
  <path d="M 183 12  A 1 1 0 0 1 184 11 L 319 11  A 1 1 0 0 1 320 12 L 320 38  A 1 1 0 0 1 319 39 L 184 39  A 1 1 0 0 1 183 38 L 183 12  Z " fill-rule="nonzero" fill="#ffffff" stroke="none" />
  <path d="M 182.5 12  A 1.5 1.5 0 0 1 184 10.5 L 319 10.5  A 1.5 1.5 0 0 1 320.5 12 L 320.5 38  A 1.5 1.5 0 0 1 319 39.5 L 184 39.5  A 1.5 1.5 0 0 1 182.5 38 L 182.5 12  Z " stroke-width="1" stroke="#8c8c8c" fill="none" stroke-opacity="0.298039215686275" />
</svg>