<?xml version="1.0" encoding="utf-8"?>
<svg version="1.1" xmlns:xlink="http://www.w3.org/1999/xlink" width="72px" height="30px" viewBox="376 162  72 30" xmlns="http://www.w3.org/2000/svg">
  <path d="M 377 164  A 1 1 0 0 1 378 163 L 446 163  A 1 1 0 0 1 447 164 L 447 190  A 1 1 0 0 1 446 191 L 378 191  A 1 1 0 0 1 377 190 L 377 164  Z " fill-rule="nonzero" fill="#ffffff" stroke="none" />
  <path d="M 376.5 164  A 1.5 1.5 0 0 1 378 162.5 L 446 162.5  A 1.5 1.5 0 0 1 447.5 164 L 447.5 190  A 1.5 1.5 0 0 1 446 191.5 L 378 191.5  A 1.5 1.5 0 0 1 376.5 190 L 376.5 164  Z " stroke-width="1" stroke="#8c8c8c" fill="none" stroke-opacity="0.298039215686275" />
</svg>