<?xml version="1.0" encoding="utf-8"?>
<svg version="1.1" xmlns:xlink="http://www.w3.org/1999/xlink" width="81px" height="30px" viewBox="470 162  81 30" xmlns="http://www.w3.org/2000/svg">
  <path d="M 471 164  A 1 1 0 0 1 472 163 L 549 163  A 1 1 0 0 1 550 164 L 550 190  A 1 1 0 0 1 549 191 L 472 191  A 1 1 0 0 1 471 190 L 471 164  Z " fill-rule="nonzero" fill="#ffffff" stroke="none" />
  <path d="M 470.5 164  A 1.5 1.5 0 0 1 472 162.5 L 549 162.5  A 1.5 1.5 0 0 1 550.5 164 L 550.5 190  A 1.5 1.5 0 0 1 549 191.5 L 472 191.5  A 1.5 1.5 0 0 1 470.5 190 L 470.5 164  Z " stroke-width="1" stroke="#8c8c8c" fill="none" stroke-opacity="0.298039215686275" />
</svg>