<?xml version="1.0" encoding="utf-8"?>
<svg version="1.1" xmlns:xlink="http://www.w3.org/1999/xlink" width="123px" height="30px" viewBox="198 277  123 30" xmlns="http://www.w3.org/2000/svg">
  <path d="M 199 279  A 1 1 0 0 1 200 278 L 319 278  A 1 1 0 0 1 320 279 L 320 305  A 1 1 0 0 1 319 306 L 200 306  A 1 1 0 0 1 199 305 L 199 279  Z " fill-rule="nonzero" fill="#f0f0f0" stroke="none" />
  <path d="M 198.5 279  A 1.5 1.5 0 0 1 200 277.5 L 319 277.5  A 1.5 1.5 0 0 1 320.5 279 L 320.5 305  A 1.5 1.5 0 0 1 319 306.5 L 200 306.5  A 1.5 1.5 0 0 1 198.5 305 L 198.5 279  Z " stroke-width="1" stroke="#8c8c8c" fill="none" stroke-opacity="0.298039215686275" />
</svg>