<?xml version="1.0" encoding="utf-8"?>
<svg version="1.1" xmlns:xlink="http://www.w3.org/1999/xlink" width="97px" height="30px" viewBox="568 162  97 30" xmlns="http://www.w3.org/2000/svg">
  <path d="M 569 164  A 1 1 0 0 1 570 163 L 663 163  A 1 1 0 0 1 664 164 L 664 190  A 1 1 0 0 1 663 191 L 570 191  A 1 1 0 0 1 569 190 L 569 164  Z " fill-rule="nonzero" fill="#f0f0f0" stroke="none" />
  <path d="M 568.5 164  A 1.5 1.5 0 0 1 570 162.5 L 663 162.5  A 1.5 1.5 0 0 1 664.5 164 L 664.5 190  A 1.5 1.5 0 0 1 663 191.5 L 570 191.5  A 1.5 1.5 0 0 1 568.5 190 L 568.5 164  Z " stroke-width="1" stroke="#8c8c8c" fill="none" stroke-opacity="0.298039215686275" />
</svg>