<?xml version="1.0" encoding="utf-8"?>
<svg version="1.1" xmlns:xlink="http://www.w3.org/1999/xlink" width="310px" height="28px" viewBox="25 131  310 28" xmlns="http://www.w3.org/2000/svg">
  <path d="M 26 133  A 1 1 0 0 1 27 132 L 333 132  A 1 1 0 0 1 334 133 L 334 157  A 1 1 0 0 1 333 158 L 27 158  A 1 1 0 0 1 26 157 L 26 133  Z " fill-rule="nonzero" fill="#f0f0f0" stroke="none" />
  <path d="M 25.5 133  A 1.5 1.5 0 0 1 27 131.5 L 333 131.5  A 1.5 1.5 0 0 1 334.5 133 L 334.5 157  A 1.5 1.5 0 0 1 333 158.5 L 27 158.5  A 1.5 1.5 0 0 1 25.5 157 L 25.5 133  Z " stroke-width="1" stroke="#8c8c8c" fill="none" stroke-opacity="0.298039215686275" />
</svg>