<?xml version="1.0" encoding="utf-8"?>
<svg version="1.1" xmlns:xlink="http://www.w3.org/1999/xlink" width="12px" height="12px" viewBox="637 306.5  12 12" xmlns="http://www.w3.org/2000/svg">
  <path d="M 643 306.5  C 646.36 306.5  649 309.14  649 312.5  C 649 315.86  646.36 318.5  643 318.5  C 639.64 318.5  637 315.86  637 312.5  C 637 309.14  639.64 306.5  643 306.5  Z " fill-rule="nonzero" fill="#f0f0f0" stroke="none" />
  <path d="M 643 307  C 646.08 307  648.5 309.42  648.5 312.5  C 648.5 315.58  646.08 318  643 318  C 639.92 318  637.5 315.58  637.5 312.5  C 637.5 309.42  639.92 307  643 307  Z " stroke-width="1" stroke="#797979" fill="none" />
  <path d="M 643 315.5  C 641.32 315.5  640 314.18  640 312.5  C 640 310.82  641.32 309.5  643 309.5  C 644.68 309.5  646 310.82  646 312.5  C 646 314.18  644.68 315.5  643 315.5  " fill-rule="nonzero" fill="#797979" stroke="none" />
</svg>