<?xml version="1.0" encoding="utf-8"?>
<svg version="1.1" xmlns:xlink="http://www.w3.org/1999/xlink" width="12px" height="12px" viewBox="453 306.5  12 12" xmlns="http://www.w3.org/2000/svg">
  <path d="M 459 306.5  C 462.36 306.5  465 309.14  465 312.5  C 465 315.86  462.36 318.5  459 318.5  C 455.64 318.5  453 315.86  453 312.5  C 453 309.14  455.64 306.5  459 306.5  Z " fill-rule="nonzero" fill="#f0f0f0" stroke="none" />
  <path d="M 459 307  C 462.08 307  464.5 309.42  464.5 312.5  C 464.5 315.58  462.08 318  459 318  C 455.92 318  453.5 315.58  453.5 312.5  C 453.5 309.42  455.92 307  459 307  Z " stroke-width="1" stroke="#797979" fill="none" />
  <path d="M 459 315.5  C 457.32 315.5  456 314.18  456 312.5  C 456 310.82  457.32 309.5  459 309.5  C 460.68 309.5  462 310.82  462 312.5  C 462 314.18  460.68 315.5  459 315.5  " fill-rule="nonzero" fill="#797979" stroke="none" />
</svg>