<?xml version="1.0" encoding="utf-8"?>
<svg version="1.1" xmlns:xlink="http://www.w3.org/1999/xlink" width="12px" height="12px" viewBox="453 199  12 12" xmlns="http://www.w3.org/2000/svg">
  <path d="M 459 199  C 462.36 199  465 201.64  465 205  C 465 208.36  462.36 211  459 211  C 455.64 211  453 208.36  453 205  C 453 201.64  455.64 199  459 199  Z " fill-rule="nonzero" fill="#ffffff" stroke="none" />
  <path d="M 459 199.5  C 462.08 199.5  464.5 201.92  464.5 205  C 464.5 208.08  462.08 210.5  459 210.5  C 455.92 210.5  453.5 208.08  453.5 205  C 453.5 201.92  455.92 199.5  459 199.5  Z " stroke-width="1" stroke="#797979" fill="none" />
  <path d="M 459 208  C 457.32 208  456 206.68  456 205  C 456 203.32  457.32 202  459 202  C 460.68 202  462 203.32  462 205  C 462 206.68  460.68 208  459 208  " fill-rule="nonzero" fill="#797979" stroke="none" />
</svg>