<?xml version="1.0" encoding="utf-8"?>
<svg version="1.1" xmlns:xlink="http://www.w3.org/1999/xlink" width="12px" height="12px" viewBox="453 134  12 12" xmlns="http://www.w3.org/2000/svg">
  <path d="M 459 134  C 462.36 134  465 136.64  465 140  C 465 143.36  462.36 146  459 146  C 455.64 146  453 143.36  453 140  C 453 136.64  455.64 134  459 134  Z " fill-rule="nonzero" fill="#ffffff" stroke="none" />
  <path d="M 459 134.5  C 462.08 134.5  464.5 136.92  464.5 140  C 464.5 143.08  462.08 145.5  459 145.5  C 455.92 145.5  453.5 143.08  453.5 140  C 453.5 136.92  455.92 134.5  459 134.5  Z " stroke-width="1" stroke="#797979" fill="none" />
  <path d="M 459 143  C 457.32 143  456 141.68  456 140  C 456 138.32  457.32 137  459 137  C 460.68 137  462 138.32  462 140  C 462 141.68  460.68 143  459 143  " fill-rule="nonzero" fill="#797979" stroke="none" />
</svg>