<?xml version="1.0" encoding="utf-8"?>
<svg version="1.1" xmlns:xlink="http://www.w3.org/1999/xlink" width="12px" height="12px" viewBox="571 134  12 12" xmlns="http://www.w3.org/2000/svg">
  <path d="M 577 134  C 580.36 134  583 136.64  583 140  C 583 143.36  580.36 146  577 146  C 573.64 146  571 143.36  571 140  C 571 136.64  573.64 134  577 134  Z " fill-rule="nonzero" fill="#ffffff" stroke="none" />
  <path d="M 577 134.5  C 580.08 134.5  582.5 136.92  582.5 140  C 582.5 143.08  580.08 145.5  577 145.5  C 573.92 145.5  571.5 143.08  571.5 140  C 571.5 136.92  573.92 134.5  577 134.5  Z " stroke-width="1" stroke="#797979" fill="none" />
  <path d="M 577 143  C 575.32 143  574 141.68  574 140  C 574 138.32  575.32 137  577 137  C 578.68 137  580 138.32  580 140  C 580 141.68  578.68 143  577 143  " fill-rule="nonzero" fill="#797979" stroke="none" />
</svg>