<?xml version="1.0" encoding="utf-8"?>
<svg version="1.1" xmlns:xlink="http://www.w3.org/1999/xlink" width="12px" height="12px" viewBox="687 134  12 12" xmlns="http://www.w3.org/2000/svg">
  <path d="M 693 134  C 696.36 134  699 136.64  699 140  C 699 143.36  696.36 146  693 146  C 689.64 146  687 143.36  687 140  C 687 136.64  689.64 134  693 134  Z " fill-rule="nonzero" fill="#f0f0f0" stroke="none" />
  <path d="M 693 134.5  C 696.08 134.5  698.5 136.92  698.5 140  C 698.5 143.08  696.08 145.5  693 145.5  C 689.92 145.5  687.5 143.08  687.5 140  C 687.5 136.92  689.92 134.5  693 134.5  Z " stroke-width="1" stroke="#797979" fill="none" />
  <path d="M 693 143  C 691.32 143  690 141.68  690 140  C 690 138.32  691.32 137  693 137  C 694.68 137  696 138.32  696 140  C 696 141.68  694.68 143  693 143  " fill-rule="nonzero" fill="#797979" stroke="none" />
</svg>