<?xml version="1.0" encoding="utf-8"?>
<svg version="1.1" xmlns:xlink="http://www.w3.org/1999/xlink" width="131px" height="40px" viewBox="306 291  131 40" xmlns="http://www.w3.org/2000/svg">
  <path d="M 307 293  A 1 1 0 0 1 308 292 L 435 292  A 1 1 0 0 1 436 293 L 436 329  A 1 1 0 0 1 435 330 L 308 330  A 1 1 0 0 1 307 329 L 307 293  Z " fill-rule="nonzero" fill="#ffffff" stroke="none" />
  <path d="M 306.5 293  A 1.5 1.5 0 0 1 308 291.5 L 435 291.5  A 1.5 1.5 0 0 1 436.5 293 L 436.5 329  A 1.5 1.5 0 0 1 435 330.5 L 308 330.5  A 1.5 1.5 0 0 1 306.5 329 L 306.5 293  Z " stroke-width="1" stroke="#8c8c8c" fill="none" stroke-opacity="0.298039215686275" />
</svg>