<?xml version="1.0" encoding="utf-8"?>
<svg version="1.1" xmlns:xlink="http://www.w3.org/1999/xlink" width="295px" height="32px" viewBox="433 134  295 32" xmlns="http://www.w3.org/2000/svg">
  <path d="M 434 136  A 1 1 0 0 1 435 135 L 726 135  A 1 1 0 0 1 727 136 L 727 164  A 1 1 0 0 1 726 165 L 435 165  A 1 1 0 0 1 434 164 L 434 136  Z " fill-rule="nonzero" fill="#f0f0f0" stroke="none" />
  <path d="M 433.5 136  A 1.5 1.5 0 0 1 435 134.5 L 726 134.5  A 1.5 1.5 0 0 1 727.5 136 L 727.5 164  A 1.5 1.5 0 0 1 726 165.5 L 435 165.5  A 1.5 1.5 0 0 1 433.5 164 L 433.5 136  Z " stroke-width="1" stroke="#8c8c8c" fill="none" stroke-opacity="0.298039215686275" />
</svg>