<?xml version="1.0" encoding="utf-8"?>
<svg version="1.1" xmlns:xlink="http://www.w3.org/1999/xlink" width="10px" height="9px" xmlns="http://www.w3.org/2000/svg">
  <g transform="matrix(1 0 0 1 -720 -280 )">
    <path d="M 9.8997995991984 4.13664596273292  C 9.96659986639947 4.19875776397515  10 4.27018633540373  10 4.35093167701863  C 10 4.43167701863354  9.96659986639947 4.50310559006211  9.8997995991984 4.56521739130435  L 5.23046092184369 8.90683229813665  C 5.16366065464262 8.96894409937888  5.08684034736139 9  5 9  C 4.91315965263861 9  4.83633934535738 8.96894409937888  4.76953907815631 8.90683229813665  L 0.100200400801603 4.56521739130435  C 0.0334001336005345 4.50310559006211  0 4.43167701863354  0 4.35093167701863  C 0 4.27018633540373  0.0334001336005345 4.19875776397515  0.100200400801603 4.13664596273292  L 0.601202404809619 3.67080745341615  C 0.668002672010688 3.60869565217391  0.744822979291917 3.57763975155279  0.831663326653307 3.57763975155279  C 0.918503674014696 3.57763975155279  0.995323981295925 3.60869565217391  1.06212424849699 3.67080745341615  L 5 7.33229813664596  L 8.93787575150301 3.67080745341615  C 9.00467601870407 3.60869565217391  9.0814963259853 3.57763975155279  9.16833667334669 3.57763975155279  C 9.25517702070808 3.57763975155279  9.33199732798931 3.60869565217391  9.39879759519038 3.67080745341615  L 9.8997995991984 4.13664596273292  Z M 9.8997995991984 0.559006211180124  C 9.96659986639947 0.621118012422359  10 0.692546583850931  10 0.773291925465839  C 10 0.854037267080744  9.96659986639947 0.925465838509316  9.8997995991984 0.987577639751552  L 5.23046092184369 5.32919254658385  C 5.16366065464262 5.39130434782609  5.08684034736139 5.42236024844721  5 5.42236024844721  C 4.91315965263861 5.42236024844721  4.83633934535738 5.39130434782609  4.76953907815631 5.32919254658385  L 0.100200400801603 0.987577639751552  C 0.0334001336005345 0.925465838509316  0 0.854037267080744  0 0.773291925465839  C 0 0.692546583850931  0.0334001336005345 0.621118012422359  0.100200400801603 0.559006211180124  L 0.601202404809619 0.0931677018633539  C 0.668002672010688 0.0310559006211173  0.744822979291917 0  0.831663326653307 0  C 0.918503674014696 0  0.995323981295925 0.0310559006211173  1.06212424849699 0.0931677018633539  L 5 3.75465838509317  L 8.93787575150301 0.0931677018633539  C 9.00467601870407 0.0310559006211173  9.0814963259853 0  9.16833667334669 0  C 9.25517702070808 0  9.33199732798931 0.0310559006211173  9.39879759519038 0.0931677018633539  L 9.8997995991984 0.559006211180124  Z " fill-rule="nonzero" fill="#7f7f7f" stroke="none" transform="matrix(1 0 0 1 720 280 )" />
  </g>
</svg>