<?xml version="1.0" encoding="utf-8"?>
<svg version="1.1" xmlns:xlink="http://www.w3.org/1999/xlink" width="300px" height="28px" viewBox="480 152  300 28" xmlns="http://www.w3.org/2000/svg">
  <path d="M 481 154  A 1 1 0 0 1 482 153 L 778 153  A 1 1 0 0 1 779 154 L 779 178  A 1 1 0 0 1 778 179 L 482 179  A 1 1 0 0 1 481 178 L 481 154  Z " fill-rule="nonzero" fill="#f0f0f0" stroke="none" />
  <path d="M 480.5 154  A 1.5 1.5 0 0 1 482 152.5 L 778 152.5  A 1.5 1.5 0 0 1 779.5 154 L 779.5 178  A 1.5 1.5 0 0 1 778 179.5 L 482 179.5  A 1.5 1.5 0 0 1 480.5 178 L 480.5 154  Z " stroke-width="1" stroke="#8c8c8c" fill="none" stroke-opacity="0.298039215686275" />
</svg>