<?xml version="1.0" encoding="utf-8"?>
<svg version="1.1" xmlns:xlink="http://www.w3.org/1999/xlink" width="300px" height="31px" viewBox="380 580  300 31" xmlns="http://www.w3.org/2000/svg">
  <path d="M 381 582  A 1 1 0 0 1 382 581 L 678 581  A 1 1 0 0 1 679 582 L 679 609  A 1 1 0 0 1 678 610 L 382 610  A 1 1 0 0 1 381 609 L 381 582  Z " fill-rule="nonzero" fill="#ffffff" stroke="none" />
  <path d="M 380.5 582  A 1.5 1.5 0 0 1 382 580.5 L 678 580.5  A 1.5 1.5 0 0 1 679.5 582 L 679.5 609  A 1.5 1.5 0 0 1 678 610.5 L 382 610.5  A 1.5 1.5 0 0 1 380.5 609 L 380.5 582  Z " stroke-width="1" stroke="#8c8c8c" fill="none" stroke-opacity="0.298039215686275" />
</svg>