<?xml version="1.0" encoding="utf-8"?>
<svg version="1.1" xmlns:xlink="http://www.w3.org/1999/xlink" width="19px" height="15px" xmlns="http://www.w3.org/2000/svg">
  <g transform="matrix(1 0 0 1 -735 -222 )">
    <path d="M 1.46153846153846 11.5178571428571  L 1.46153846153846 13.9285714285714  L 4.75 13.9285714285714  L 4.75 11.5178571428571  L 1.46153846153846 11.5178571428571  Z M 5.48076923076923 11.5178571428571  L 5.48076923076923 13.9285714285714  L 9.13461538461539 13.9285714285714  L 9.13461538461539 11.5178571428571  L 5.48076923076923 11.5178571428571  Z M 1.46153846153846 8.30357142857143  L 1.46153846153846 10.9821428571429  L 4.75 10.9821428571429  L 4.75 8.30357142857143  L 1.46153846153846 8.30357142857143  Z M 5.48076923076923 8.30357142857143  L 5.48076923076923 10.9821428571429  L 9.13461538461539 10.9821428571429  L 9.13461538461539 8.30357142857143  L 5.48076923076923 8.30357142857143  Z M 1.46153846153846 5.35714285714286  L 1.46153846153846 7.76785714285714  L 4.75 7.76785714285714  L 4.75 5.35714285714286  L 1.46153846153846 5.35714285714286  Z M 9.86538461538462 11.5178571428571  L 9.86538461538462 13.9285714285714  L 13.5192307692308 13.9285714285714  L 13.5192307692308 11.5178571428571  L 9.86538461538462 11.5178571428571  Z M 5.48076923076923 5.35714285714286  L 5.48076923076923 7.76785714285714  L 9.13461538461539 7.76785714285714  L 9.13461538461539 5.35714285714286  L 5.48076923076923 5.35714285714286  Z M 14.25 11.5178571428571  L 14.25 13.9285714285714  L 17.5384615384615 13.9285714285714  L 17.5384615384615 11.5178571428571  L 14.25 11.5178571428571  Z M 9.86538461538462 8.30357142857143  L 9.86538461538462 10.9821428571429  L 13.5192307692308 10.9821428571429  L 13.5192307692308 8.30357142857143  L 9.86538461538462 8.30357142857143  Z M 5.73768028846154 3.93833705357143  C 5.80999599358974 3.88532366071428  5.84615384615385 3.82254464285714  5.84615384615385 3.75  L 5.84615384615385 1.33928571428571  C 5.84615384615385 1.26674107142857  5.80999599358974 1.20396205357143  5.73768028846154 1.15094866071429  C 5.66536458333333 1.09793526785714  5.57972756410256 1.07142857142857  5.48076923076923 1.07142857142857  L 4.75 1.07142857142857  C 4.65104166666667 1.07142857142857  4.5654046474359 1.09793526785714  4.49308894230769 1.15094866071429  C 4.42077323717949 1.20396205357143  4.38461538461539 1.26674107142857  4.38461538461539 1.33928571428571  L 4.38461538461539 3.75  C 4.38461538461539 3.82254464285714  4.42077323717949 3.88532366071428  4.49308894230769 3.93833705357143  C 4.5654046474359 3.99135044642857  4.65104166666667 4.01785714285714  4.75 4.01785714285714  L 5.48076923076923 4.01785714285714  C 5.57972756410256 4.01785714285714  5.66536458333333 3.99135044642857  5.73768028846154 3.93833705357143  Z M 14.25 8.30357142857143  L 14.25 10.9821428571429  L 17.5384615384615 10.9821428571429  L 17.5384615384615 8.30357142857143  L 14.25 8.30357142857143  Z M 9.86538461538462 5.35714285714286  L 9.86538461538462 7.76785714285714  L 13.5192307692308 7.76785714285714  L 13.5192307692308 5.35714285714286  L 9.86538461538462 5.35714285714286  Z M 14.25 5.35714285714286  L 14.25 7.76785714285714  L 17.5384615384615 7.76785714285714  L 17.5384615384615 5.35714285714286  L 14.25 5.35714285714286  Z M 14.5069110576923 3.93833705357143  C 14.5792267628205 3.88532366071428  14.6153846153846 3.82254464285714  14.6153846153846 3.75  L 14.6153846153846 1.33928571428571  C 14.6153846153846 1.26674107142857  14.5792267628205 1.20396205357143  14.5069110576923 1.15094866071429  C 14.4345953525641 1.09793526785714  14.3489583333333 1.07142857142857  14.25 1.07142857142857  L 13.5192307692308 1.07142857142857  C 13.4202724358974 1.07142857142857  13.3346354166667 1.09793526785714  13.2623197115385 1.15094866071429  C 13.1900040064103 1.20396205357143  13.1538461538462 1.26674107142857  13.1538461538462 1.33928571428571  L 13.1538461538462 3.75  C 13.1538461538462 3.82254464285714  13.1900040064103 3.88532366071428  13.2623197115385 3.93833705357143  C 13.3346354166667 3.99135044642857  13.4202724358974 4.01785714285714  13.5192307692308 4.01785714285714  L 14.25 4.01785714285714  C 14.3489583333333 4.01785714285714  14.4345953525641 3.99135044642857  14.5069110576923 3.93833705357143  Z M 18.5661057692308 2.4609375  C 18.8553685897436 2.67299107142857  19 2.92410714285714  19 3.21428571428571  L 19 13.9285714285714  C 19 14.21875  18.8553685897436 14.4698660714286  18.5661057692308 14.6819196428571  C 18.2768429487179 14.8939732142857  17.9342948717949 15  17.5384615384615 15  L 1.46153846153846 15  C 1.06570512820513 15  0.723157051282051 14.8939732142857  0.433894230769231 14.6819196428571  C 0.14463141025641 14.4698660714286  0 14.21875  0 13.9285714285714  L 0 3.21428571428571  C 0 2.92410714285714  0.14463141025641 2.67299107142857  0.433894230769231 2.4609375  C 0.723157051282051 2.24888392857143  1.06570512820513 2.14285714285714  1.46153846153846 2.14285714285714  L 2.92307692307692 2.14285714285714  L 2.92307692307692 1.33928571428571  C 2.92307692307692 0.970982142857144  3.10196314102564 0.655691964285713  3.45973557692308 0.393415178571429  C 3.81750801282051 0.131138392857143  4.24759615384615 0  4.75 0  L 5.48076923076923 0  C 5.98317307692308 0  6.41326121794872 0.131138392857143  6.77103365384615 0.393415178571429  C 7.12880608974359 0.655691964285713  7.30769230769231 0.970982142857144  7.30769230769231 1.33928571428571  L 7.30769230769231 2.14285714285714  L 11.6923076923077 2.14285714285714  L 11.6923076923077 1.33928571428571  C 11.6923076923077 0.970982142857144  11.8711939102564 0.655691964285713  12.2289663461538 0.393415178571429  C 12.5867387820513 0.131138392857143  13.0168269230769 0  13.5192307692308 0  L 14.25 0  C 14.7524038461538 0  15.1824919871795 0.131138392857143  15.5402644230769 0.393415178571429  C 15.8980368589744 0.655691964285713  16.0769230769231 0.970982142857144  16.0769230769231 1.33928571428571  L 16.0769230769231 2.14285714285714  L 17.5384615384615 2.14285714285714  C 17.9342948717949 2.14285714285714  18.2768429487179 2.24888392857143  18.5661057692308 2.4609375  Z " fill-rule="nonzero" fill="#8c8c8c" stroke="none" transform="matrix(1 0 0 1 735 222 )" />
  </g>
</svg>