<?xml version="1.0" encoding="utf-8"?>
<svg version="1.1" xmlns:xlink="http://www.w3.org/1999/xlink" width="412px" height="40px" viewBox="306 114  412 40" xmlns="http://www.w3.org/2000/svg">
  <path d="M 307 116  A 1 1 0 0 1 308 115 L 716 115  A 1 1 0 0 1 717 116 L 717 152  A 1 1 0 0 1 716 153 L 308 153  A 1 1 0 0 1 307 152 L 307 116  Z " fill-rule="nonzero" fill="#ffffff" stroke="none" />
  <path d="M 306.5 116  A 1.5 1.5 0 0 1 308 114.5 L 716 114.5  A 1.5 1.5 0 0 1 717.5 116 L 717.5 152  A 1.5 1.5 0 0 1 716 153.5 L 308 153.5  A 1.5 1.5 0 0 1 306.5 152 L 306.5 116  Z " stroke-width="1" stroke="#8c8c8c" fill="none" stroke-opacity="0.298039215686275" />
</svg>