<?xml version="1.0" encoding="utf-8"?>
<svg version="1.1" xmlns:xlink="http://www.w3.org/1999/xlink" width="224px" height="32px" viewBox="400 199  224 32" xmlns="http://www.w3.org/2000/svg">
  <path d="M 401 201  A 1 1 0 0 1 402 200 L 622 200  A 1 1 0 0 1 623 201 L 623 229  A 1 1 0 0 1 622 230 L 402 230  A 1 1 0 0 1 401 229 L 401 201  Z " fill-rule="nonzero" fill="#ffffff" stroke="none" />
  <path d="M 400.5 201  A 1.5 1.5 0 0 1 402 199.5 L 622 199.5  A 1.5 1.5 0 0 1 623.5 201 L 623.5 229  A 1.5 1.5 0 0 1 622 230.5 L 402 230.5  A 1.5 1.5 0 0 1 400.5 229 L 400.5 201  Z " stroke-width="1" stroke="#8c8c8c" fill="none" stroke-opacity="0.298039215686275" />
</svg>