<?xml version="1.0" encoding="utf-8"?>
<svg version="1.1" xmlns:xlink="http://www.w3.org/1999/xlink" width="133px" height="32px" viewBox="400 293  133 32" xmlns="http://www.w3.org/2000/svg">
  <path d="M 401 295  A 1 1 0 0 1 402 294 L 531 294  A 1 1 0 0 1 532 295 L 532 323  A 1 1 0 0 1 531 324 L 402 324  A 1 1 0 0 1 401 323 L 401 295  Z " fill-rule="nonzero" fill="#ffffff" stroke="none" />
  <path d="M 400.5 295  A 1.5 1.5 0 0 1 402 293.5 L 531 293.5  A 1.5 1.5 0 0 1 532.5 295 L 532.5 323  A 1.5 1.5 0 0 1 531 324.5 L 402 324.5  A 1.5 1.5 0 0 1 400.5 323 L 400.5 295  Z " stroke-width="1" stroke="#8c8c8c" fill="none" stroke-opacity="0.298039215686275" />
</svg>