<?xml version="1.0" encoding="utf-8"?>
<svg version="1.1" xmlns:xlink="http://www.w3.org/1999/xlink" width="40px" height="25px" viewBox="755 227  40 25" xmlns="http://www.w3.org/2000/svg">
  <path d="M 756 229  A 1 1 0 0 1 757 228 L 793 228  A 1 1 0 0 1 794 229 L 794 250  A 1 1 0 0 1 793 251 L 757 251  A 1 1 0 0 1 756 250 L 756 229  Z " fill-rule="nonzero" fill="#ffffff" stroke="none" />
  <path d="M 755.5 229  A 1.5 1.5 0 0 1 757 227.5 L 793 227.5  A 1.5 1.5 0 0 1 794.5 229 L 794.5 250  A 1.5 1.5 0 0 1 793 251.5 L 757 251.5  A 1.5 1.5 0 0 1 755.5 250 L 755.5 229  Z " stroke-width="1" stroke="#8c8c8c" fill="none" stroke-opacity="0.298039215686275" />
</svg>