<?xml version="1.0" encoding="utf-8"?>
<svg version="1.1" xmlns:xlink="http://www.w3.org/1999/xlink" width="23px" height="13px" xmlns="http://www.w3.org/2000/svg">
  <g transform="matrix(1 0 0 1 -696 -213 )">
    <path d="M 1.76923076923077 9.98214285714286  L 1.76923076923077 12.0714285714286  L 5.75 12.0714285714286  L 5.75 9.98214285714286  L 1.76923076923077 9.98214285714286  Z M 6.63461538461538 9.98214285714286  L 6.63461538461538 12.0714285714286  L 11.0576923076923 12.0714285714286  L 11.0576923076923 9.98214285714286  L 6.63461538461538 9.98214285714286  Z M 1.76923076923077 7.19642857142857  L 1.76923076923077 9.51785714285714  L 5.75 9.51785714285714  L 5.75 7.19642857142857  L 1.76923076923077 7.19642857142857  Z M 6.63461538461538 7.19642857142857  L 6.63461538461538 9.51785714285714  L 11.0576923076923 9.51785714285714  L 11.0576923076923 7.19642857142857  L 6.63461538461538 7.19642857142857  Z M 1.76923076923077 4.64285714285714  L 1.76923076923077 6.73214285714286  L 5.75 6.73214285714286  L 5.75 4.64285714285714  L 1.76923076923077 4.64285714285714  Z M 11.9423076923077 9.98214285714286  L 11.9423076923077 12.0714285714286  L 16.3653846153846 12.0714285714286  L 16.3653846153846 9.98214285714286  L 11.9423076923077 9.98214285714286  Z M 6.63461538461538 4.64285714285714  L 6.63461538461538 6.73214285714286  L 11.0576923076923 6.73214285714286  L 11.0576923076923 4.64285714285714  L 6.63461538461538 4.64285714285714  Z M 17.25 9.98214285714286  L 17.25 12.0714285714286  L 21.2307692307692 12.0714285714286  L 21.2307692307692 9.98214285714286  L 17.25 9.98214285714286  Z M 11.9423076923077 7.19642857142857  L 11.9423076923077 9.51785714285714  L 16.3653846153846 9.51785714285714  L 16.3653846153846 7.19642857142857  L 11.9423076923077 7.19642857142857  Z M 6.94561298076923 3.41322544642857  C 7.03315304487179 3.36728050595238  7.07692307692308 3.31287202380952  7.07692307692308 3.25  L 7.07692307692308 1.16071428571429  C 7.07692307692308 1.09784226190476  7.03315304487179 1.0434337797619  6.94561298076923 0.997488839285714  C 6.85807291666667 0.951543898809523  6.75440705128205 0.928571428571428  6.63461538461538 0.928571428571428  L 5.75 0.928571428571428  C 5.63020833333333 0.928571428571428  5.52654246794872 0.951543898809523  5.43900240384615 0.997488839285714  C 5.35146233974359 1.0434337797619  5.30769230769231 1.09784226190476  5.30769230769231 1.16071428571429  L 5.30769230769231 3.25  C 5.30769230769231 3.31287202380952  5.35146233974359 3.36728050595238  5.43900240384615 3.41322544642857  C 5.52654246794872 3.45917038690476  5.63020833333333 3.48214285714286  5.75 3.48214285714286  L 6.63461538461538 3.48214285714286  C 6.75440705128205 3.48214285714286  6.85807291666667 3.45917038690476  6.94561298076923 3.41322544642857  Z M 17.25 7.19642857142857  L 17.25 9.51785714285714  L 21.2307692307692 9.51785714285714  L 21.2307692307692 7.19642857142857  L 17.25 7.19642857142857  Z M 11.9423076923077 4.64285714285714  L 11.9423076923077 6.73214285714286  L 16.3653846153846 6.73214285714286  L 16.3653846153846 4.64285714285714  L 11.9423076923077 4.64285714285714  Z M 17.25 4.64285714285714  L 17.25 6.73214285714286  L 21.2307692307692 6.73214285714286  L 21.2307692307692 4.64285714285714  L 17.25 4.64285714285714  Z M 17.5609975961538 3.41322544642857  C 17.6485376602564 3.36728050595238  17.6923076923077 3.31287202380952  17.6923076923077 3.25  L 17.6923076923077 1.16071428571429  C 17.6923076923077 1.09784226190476  17.6485376602564 1.0434337797619  17.5609975961538 0.997488839285714  C 17.4734575320513 0.951543898809523  17.3697916666667 0.928571428571428  17.25 0.928571428571428  L 16.3653846153846 0.928571428571428  C 16.245592948718 0.928571428571428  16.1419270833333 0.951543898809523  16.0543870192308 0.997488839285714  C 15.9668469551282 1.0434337797619  15.9230769230769 1.09784226190476  15.9230769230769 1.16071428571429  L 15.9230769230769 3.25  C 15.9230769230769 3.31287202380952  15.9668469551282 3.36728050595238  16.0543870192308 3.41322544642857  C 16.1419270833333 3.45917038690476  16.245592948718 3.48214285714286  16.3653846153846 3.48214285714286  L 17.25 3.48214285714286  C 17.3697916666667 3.48214285714286  17.4734575320513 3.45917038690476  17.5609975961538 3.41322544642857  Z M 22.4747596153846 2.1328125  C 22.8249198717949 2.31659226190476  23 2.53422619047619  23 2.78571428571429  L 23 12.0714285714286  C 23 12.3229166666667  22.8249198717949 12.5405505952381  22.4747596153846 12.7243303571429  C 22.1245993589744 12.9081101190476  21.7099358974359 13  21.2307692307692 13  L 1.76923076923077 13  C 1.2900641025641 13  0.875400641025641 12.9081101190476  0.525240384615385 12.7243303571429  C 0.175080128205128 12.5405505952381  0 12.3229166666667  0 12.0714285714286  L 0 2.78571428571429  C 0 2.53422619047619  0.175080128205128 2.31659226190476  0.525240384615385 2.1328125  C 0.875400641025641 1.94903273809524  1.2900641025641 1.85714285714286  1.76923076923077 1.85714285714286  L 3.53846153846154 1.85714285714286  L 3.53846153846154 1.16071428571429  C 3.53846153846154 0.841517857142858  3.75500801282051 0.568266369047618  4.18810096153846 0.340959821428572  C 4.62119391025641 0.113653273809524  5.14182692307692 0  5.75 0  L 6.63461538461538 0  C 7.24278846153846 0  7.76342147435898 0.113653273809524  8.19651442307692 0.340959821428572  C 8.62960737179487 0.568266369047618  8.84615384615385 0.841517857142858  8.84615384615385 1.16071428571429  L 8.84615384615385 1.85714285714286  L 14.1538461538462 1.85714285714286  L 14.1538461538462 1.16071428571429  C 14.1538461538462 0.841517857142858  14.3703926282051 0.568266369047618  14.8034855769231 0.340959821428572  C 15.236578525641 0.113653273809524  15.7572115384615 0  16.3653846153846 0  L 17.25 0  C 17.8581730769231 0  18.3788060897436 0.113653273809524  18.8118990384615 0.340959821428572  C 19.2449919871795 0.568266369047618  19.4615384615385 0.841517857142858  19.4615384615385 1.16071428571429  L 19.4615384615385 1.85714285714286  L 21.2307692307692 1.85714285714286  C 21.7099358974359 1.85714285714286  22.1245993589744 1.94903273809524  22.4747596153846 2.1328125  Z " fill-rule="nonzero" fill="#8c8c8c" stroke="none" transform="matrix(1 0 0 1 696 213 )" />
  </g>
</svg>