<?xml version="1.0" encoding="utf-8"?>
<svg version="1.1" xmlns:xlink="http://www.w3.org/1999/xlink" width="364px" height="32px" viewBox="207 121  364 32" xmlns="http://www.w3.org/2000/svg">
  <path d="M 208 123  A 1 1 0 0 1 209 122 L 569 122  A 1 1 0 0 1 570 123 L 570 151  A 1 1 0 0 1 569 152 L 209 152  A 1 1 0 0 1 208 151 L 208 123  Z " fill-rule="nonzero" fill="#f0f0f0" stroke="none" />
  <path d="M 207.5 123  A 1.5 1.5 0 0 1 209 121.5 L 569 121.5  A 1.5 1.5 0 0 1 570.5 123 L 570.5 151  A 1.5 1.5 0 0 1 569 152.5 L 209 152.5  A 1.5 1.5 0 0 1 207.5 151 L 207.5 123  Z " stroke-width="1" stroke="#8c8c8c" fill="none" stroke-opacity="0.298039215686275" />
</svg>