<?xml version="1.0" encoding="utf-8"?>
<svg version="1.1" xmlns:xlink="http://www.w3.org/1999/xlink" width="117px" height="32px" viewBox="394 248  117 32" xmlns="http://www.w3.org/2000/svg">
  <path d="M 395 250  A 1 1 0 0 1 396 249 L 509 249  A 1 1 0 0 1 510 250 L 510 278  A 1 1 0 0 1 509 279 L 396 279  A 1 1 0 0 1 395 278 L 395 250  Z " fill-rule="nonzero" fill="#f0f0f0" stroke="none" />
  <path d="M 394.5 250  A 1.5 1.5 0 0 1 396 248.5 L 509 248.5  A 1.5 1.5 0 0 1 510.5 250 L 510.5 278  A 1.5 1.5 0 0 1 509 279.5 L 396 279.5  A 1.5 1.5 0 0 1 394.5 278 L 394.5 250  Z " stroke-width="1" stroke="#8c8c8c" fill="none" stroke-opacity="0.298039215686275" />
</svg>