<?xml version="1.0" encoding="utf-8"?>
<svg version="1.1" xmlns:xlink="http://www.w3.org/1999/xlink" width="295px" height="32px" viewBox="433 153  295 32" xmlns="http://www.w3.org/2000/svg">
  <path d="M 434 155  A 1 1 0 0 1 435 154 L 726 154  A 1 1 0 0 1 727 155 L 727 183  A 1 1 0 0 1 726 184 L 435 184  A 1 1 0 0 1 434 183 L 434 155  Z " fill-rule="nonzero" fill="#f2f2f2" stroke="none" />
  <path d="M 433.5 155  A 1.5 1.5 0 0 1 435 153.5 L 726 153.5  A 1.5 1.5 0 0 1 727.5 155 L 727.5 183  A 1.5 1.5 0 0 1 726 184.5 L 435 184.5  A 1.5 1.5 0 0 1 433.5 183 L 433.5 155  Z " stroke-width="1" stroke="#8c8c8c" fill="none" stroke-opacity="0.298039215686275" />
</svg>