<?xml version="1.0" encoding="utf-8"?>
<svg version="1.1" xmlns:xlink="http://www.w3.org/1999/xlink" width="188px" height="40px" viewBox="306 83  188 40" xmlns="http://www.w3.org/2000/svg">
  <path d="M 307 85  A 1 1 0 0 1 308 84 L 492 84  A 1 1 0 0 1 493 85 L 493 121  A 1 1 0 0 1 492 122 L 308 122  A 1 1 0 0 1 307 121 L 307 85  Z " fill-rule="nonzero" fill="#ffffff" stroke="none" />
  <path d="M 306.5 85  A 1.5 1.5 0 0 1 308 83.5 L 492 83.5  A 1.5 1.5 0 0 1 493.5 85 L 493.5 121  A 1.5 1.5 0 0 1 492 122.5 L 308 122.5  A 1.5 1.5 0 0 1 306.5 121 L 306.5 85  Z " stroke-width="1" stroke="#8c8c8c" fill="none" stroke-opacity="0.298039215686275" />
</svg>