<?xml version="1.0" encoding="utf-8"?>
<svg version="1.1" xmlns:xlink="http://www.w3.org/1999/xlink" width="45px" height="25px" viewBox="692 227  45 25" xmlns="http://www.w3.org/2000/svg">
  <path d="M 693 229  A 1 1 0 0 1 694 228 L 735 228  A 1 1 0 0 1 736 229 L 736 250  A 1 1 0 0 1 735 251 L 694 251  A 1 1 0 0 1 693 250 L 693 229  Z " fill-rule="nonzero" fill="#ffffff" stroke="none" />
  <path d="M 692.5 229  A 1.5 1.5 0 0 1 694 227.5 L 735 227.5  A 1.5 1.5 0 0 1 736.5 229 L 736.5 250  A 1.5 1.5 0 0 1 735 251.5 L 694 251.5  A 1.5 1.5 0 0 1 692.5 250 L 692.5 229  Z " stroke-width="1" stroke="#8c8c8c" fill="none" stroke-opacity="0.298039215686275" />
</svg>